<mxfile host="app.diagrams.net" modified="2023-08-17T13:19:59.606Z" agent="Mozilla/5.0 (X11; Ubuntu; Linux x86_64; rv:109.0) Gecko/20100101 Firefox/116.0" etag="siCoCwGpbyKURZhO5pj7" version="21.6.8" type="device" pages="3">
  <diagram name="mtvs" id="uKXGRMk40dO73t0RgV7X">
    <mxGraphModel dx="1430" dy="875" grid="1" gridSize="5" guides="1" tooltips="1" connect="1" arrows="1" fold="1" page="1" pageScale="1" pageWidth="850" pageHeight="1100" math="0" shadow="0">
      <root>
        <mxCell id="0" />
        <mxCell id="1" parent="0" />
        <mxCell id="DogwxtStTw7Rdeo8IRhZ-50" value="" style="rounded=1;whiteSpace=wrap;html=1;fillColor=#e1d5e7;strokeColor=#9673a6;" vertex="1" parent="1">
          <mxGeometry x="235" y="335" width="360" height="520" as="geometry" />
        </mxCell>
        <mxCell id="DogwxtStTw7Rdeo8IRhZ-3" value="&lt;div&gt;&lt;font style=&quot;font-size: 15px;&quot;&gt;Inputs&lt;/font&gt;&lt;/div&gt;" style="text;html=1;strokeColor=none;fillColor=none;align=center;verticalAlign=middle;whiteSpace=wrap;rounded=0;" vertex="1" parent="1">
          <mxGeometry x="395" y="1070" width="60" height="30" as="geometry" />
        </mxCell>
        <mxCell id="DogwxtStTw7Rdeo8IRhZ-4" value="(batch, seq, feat_dim)" style="text;html=1;strokeColor=none;fillColor=none;align=center;verticalAlign=middle;whiteSpace=wrap;rounded=0;" vertex="1" parent="1">
          <mxGeometry x="520" y="1070" width="120" height="30" as="geometry" />
        </mxCell>
        <mxCell id="DogwxtStTw7Rdeo8IRhZ-5" value="" style="endArrow=classic;html=1;rounded=0;exitX=0.5;exitY=0;exitDx=0;exitDy=0;entryX=0.5;entryY=1;entryDx=0;entryDy=0;" edge="1" parent="1" source="DogwxtStTw7Rdeo8IRhZ-3" target="DogwxtStTw7Rdeo8IRhZ-19">
          <mxGeometry width="50" height="50" relative="1" as="geometry">
            <mxPoint x="400" y="550" as="sourcePoint" />
            <mxPoint x="425" y="1020" as="targetPoint" />
          </mxGeometry>
        </mxCell>
        <mxCell id="DogwxtStTw7Rdeo8IRhZ-7" value="(seq, batch, model_dim)" style="text;html=1;strokeColor=none;fillColor=none;align=center;verticalAlign=middle;whiteSpace=wrap;rounded=0;" vertex="1" parent="1">
          <mxGeometry x="505" y="965" width="160" height="30" as="geometry" />
        </mxCell>
        <mxCell id="DogwxtStTw7Rdeo8IRhZ-9" value="" style="ellipse;whiteSpace=wrap;html=1;aspect=fixed;" vertex="1" parent="1">
          <mxGeometry x="403" y="865" width="45" height="45" as="geometry" />
        </mxCell>
        <mxCell id="DogwxtStTw7Rdeo8IRhZ-10" value="" style="endArrow=classic;html=1;rounded=0;exitX=0.5;exitY=0;exitDx=0;exitDy=0;entryX=0.5;entryY=1;entryDx=0;entryDy=0;" edge="1" parent="1" source="DogwxtStTw7Rdeo8IRhZ-19" target="DogwxtStTw7Rdeo8IRhZ-9">
          <mxGeometry width="50" height="50" relative="1" as="geometry">
            <mxPoint x="425" y="950" as="sourcePoint" />
            <mxPoint x="320" y="920" as="targetPoint" />
          </mxGeometry>
        </mxCell>
        <mxCell id="DogwxtStTw7Rdeo8IRhZ-11" value="Positional Encoding" style="text;html=1;strokeColor=none;fillColor=none;align=center;verticalAlign=middle;whiteSpace=wrap;rounded=0;" vertex="1" parent="1">
          <mxGeometry x="455" y="872.5" width="80" height="30" as="geometry" />
        </mxCell>
        <mxCell id="DogwxtStTw7Rdeo8IRhZ-17" value="" style="endArrow=none;dashed=1;html=1;dashPattern=1 3;strokeWidth=2;rounded=0;exitX=0;exitY=1;exitDx=0;exitDy=0;entryX=1;entryY=0;entryDx=0;entryDy=0;" edge="1" parent="1" source="DogwxtStTw7Rdeo8IRhZ-9" target="DogwxtStTw7Rdeo8IRhZ-9">
          <mxGeometry width="50" height="50" relative="1" as="geometry">
            <mxPoint x="400" y="550" as="sourcePoint" />
            <mxPoint x="450" y="500" as="targetPoint" />
          </mxGeometry>
        </mxCell>
        <mxCell id="DogwxtStTw7Rdeo8IRhZ-18" value="" style="endArrow=none;dashed=1;html=1;dashPattern=1 3;strokeWidth=2;rounded=0;exitX=0;exitY=0;exitDx=0;exitDy=0;entryX=1;entryY=1;entryDx=0;entryDy=0;" edge="1" parent="1" source="DogwxtStTw7Rdeo8IRhZ-9" target="DogwxtStTw7Rdeo8IRhZ-9">
          <mxGeometry width="50" height="50" relative="1" as="geometry">
            <mxPoint x="400" y="550" as="sourcePoint" />
            <mxPoint x="450" y="500" as="targetPoint" />
          </mxGeometry>
        </mxCell>
        <mxCell id="DogwxtStTw7Rdeo8IRhZ-19" value="&lt;div&gt;Input Projection&lt;/div&gt;" style="rounded=1;whiteSpace=wrap;html=1;fillColor=#dae8fc;strokeColor=#6c8ebf;" vertex="1" parent="1">
          <mxGeometry x="365" y="950" width="120" height="60" as="geometry" />
        </mxCell>
        <mxCell id="DogwxtStTw7Rdeo8IRhZ-21" value="&lt;div&gt;Multi-Head Attention&lt;br&gt;&lt;/div&gt;" style="rounded=1;whiteSpace=wrap;html=1;fillColor=#f8cecc;strokeColor=#b85450;" vertex="1" parent="1">
          <mxGeometry x="365" y="680" width="120" height="60" as="geometry" />
        </mxCell>
        <mxCell id="DogwxtStTw7Rdeo8IRhZ-24" value="" style="endArrow=classic;html=1;rounded=0;exitX=0.5;exitY=0;exitDx=0;exitDy=0;entryX=0.5;entryY=1;entryDx=0;entryDy=0;" edge="1" parent="1" source="DogwxtStTw7Rdeo8IRhZ-9" target="DogwxtStTw7Rdeo8IRhZ-21">
          <mxGeometry width="50" height="50" relative="1" as="geometry">
            <mxPoint x="400" y="550" as="sourcePoint" />
            <mxPoint x="450" y="500" as="targetPoint" />
          </mxGeometry>
        </mxCell>
        <mxCell id="DogwxtStTw7Rdeo8IRhZ-35" value="" style="edgeStyle=orthogonalEdgeStyle;rounded=0;orthogonalLoop=1;jettySize=auto;html=1;" edge="1" parent="1" source="DogwxtStTw7Rdeo8IRhZ-32" target="DogwxtStTw7Rdeo8IRhZ-33">
          <mxGeometry relative="1" as="geometry" />
        </mxCell>
        <mxCell id="DogwxtStTw7Rdeo8IRhZ-36" value="" style="edgeStyle=orthogonalEdgeStyle;rounded=0;orthogonalLoop=1;jettySize=auto;html=1;" edge="1" parent="1" source="DogwxtStTw7Rdeo8IRhZ-32" target="DogwxtStTw7Rdeo8IRhZ-33">
          <mxGeometry relative="1" as="geometry" />
        </mxCell>
        <mxCell id="DogwxtStTw7Rdeo8IRhZ-34" value="" style="endArrow=classic;html=1;rounded=0;exitX=0.5;exitY=0;exitDx=0;exitDy=0;entryX=0.5;entryY=1;entryDx=0;entryDy=0;" edge="1" parent="1" source="DogwxtStTw7Rdeo8IRhZ-21" target="DogwxtStTw7Rdeo8IRhZ-33">
          <mxGeometry width="50" height="50" relative="1" as="geometry">
            <mxPoint x="615" y="670" as="sourcePoint" />
            <mxPoint x="540" y="580" as="targetPoint" />
          </mxGeometry>
        </mxCell>
        <mxCell id="DogwxtStTw7Rdeo8IRhZ-32" value="Dropout" style="rounded=1;whiteSpace=wrap;html=1;fillColor=#fff2cc;strokeColor=#d6b656;" vertex="1" parent="1">
          <mxGeometry x="390" y="650" width="70.5" height="20" as="geometry" />
        </mxCell>
        <mxCell id="DogwxtStTw7Rdeo8IRhZ-33" value="Add &amp;amp; Norm" style="rounded=1;whiteSpace=wrap;html=1;fillColor=#fff2cc;strokeColor=#d6b656;" vertex="1" parent="1">
          <mxGeometry x="365" y="575" width="120" height="60" as="geometry" />
        </mxCell>
        <mxCell id="DogwxtStTw7Rdeo8IRhZ-39" value="" style="endArrow=classic;html=1;rounded=0;entryX=0;entryY=0.5;entryDx=0;entryDy=0;" edge="1" parent="1" target="DogwxtStTw7Rdeo8IRhZ-33">
          <mxGeometry width="50" height="50" relative="1" as="geometry">
            <mxPoint x="425" y="825" as="sourcePoint" />
            <mxPoint x="300" y="570" as="targetPoint" />
            <Array as="points">
              <mxPoint x="300" y="825" />
              <mxPoint x="300" y="605" />
            </Array>
          </mxGeometry>
        </mxCell>
        <mxCell id="DogwxtStTw7Rdeo8IRhZ-42" value="" style="endArrow=classic;html=1;rounded=0;exitX=0.5;exitY=0;exitDx=0;exitDy=0;entryX=0.25;entryY=1;entryDx=0;entryDy=0;" edge="1" parent="1" source="DogwxtStTw7Rdeo8IRhZ-9" target="DogwxtStTw7Rdeo8IRhZ-21">
          <mxGeometry width="50" height="50" relative="1" as="geometry">
            <mxPoint x="380" y="710" as="sourcePoint" />
            <mxPoint x="430" y="660" as="targetPoint" />
            <Array as="points">
              <mxPoint x="425" y="800" />
              <mxPoint x="395" y="800" />
            </Array>
          </mxGeometry>
        </mxCell>
        <mxCell id="DogwxtStTw7Rdeo8IRhZ-43" value="" style="endArrow=classic;html=1;rounded=0;exitX=0.5;exitY=0;exitDx=0;exitDy=0;entryX=0.75;entryY=1;entryDx=0;entryDy=0;" edge="1" parent="1" source="DogwxtStTw7Rdeo8IRhZ-9" target="DogwxtStTw7Rdeo8IRhZ-21">
          <mxGeometry width="50" height="50" relative="1" as="geometry">
            <mxPoint x="431" y="870" as="sourcePoint" />
            <mxPoint x="400" y="745" as="targetPoint" />
            <Array as="points">
              <mxPoint x="426" y="800" />
              <mxPoint x="455" y="800" />
            </Array>
          </mxGeometry>
        </mxCell>
        <mxCell id="DogwxtStTw7Rdeo8IRhZ-44" value="Feed Forward" style="rounded=1;whiteSpace=wrap;html=1;fillColor=#d5e8d4;strokeColor=#82b366;" vertex="1" parent="1">
          <mxGeometry x="365.5" y="470" width="120" height="60" as="geometry" />
        </mxCell>
        <mxCell id="DogwxtStTw7Rdeo8IRhZ-45" value="" style="endArrow=classic;html=1;rounded=0;exitX=0.5;exitY=0;exitDx=0;exitDy=0;entryX=0.5;entryY=1;entryDx=0;entryDy=0;" edge="1" parent="1" target="DogwxtStTw7Rdeo8IRhZ-44" source="DogwxtStTw7Rdeo8IRhZ-33">
          <mxGeometry width="50" height="50" relative="1" as="geometry">
            <mxPoint x="426" y="575" as="sourcePoint" />
            <mxPoint x="450" y="210" as="targetPoint" />
          </mxGeometry>
        </mxCell>
        <mxCell id="DogwxtStTw7Rdeo8IRhZ-49" value="" style="endArrow=classic;html=1;rounded=0;entryX=0.5;entryY=1;entryDx=0;entryDy=0;exitX=0.5;exitY=0;exitDx=0;exitDy=0;" edge="1" parent="1" source="DogwxtStTw7Rdeo8IRhZ-44" target="DogwxtStTw7Rdeo8IRhZ-47">
          <mxGeometry width="50" height="50" relative="1" as="geometry">
            <mxPoint x="465" y="535" as="sourcePoint" />
            <mxPoint x="430" y="640" as="targetPoint" />
          </mxGeometry>
        </mxCell>
        <mxCell id="DogwxtStTw7Rdeo8IRhZ-46" value="Dropout" style="rounded=1;whiteSpace=wrap;html=1;fillColor=#fff2cc;strokeColor=#d6b656;" vertex="1" parent="1">
          <mxGeometry x="390" y="440" width="70.5" height="20" as="geometry" />
        </mxCell>
        <mxCell id="DogwxtStTw7Rdeo8IRhZ-47" value="Add &amp;amp; Norm" style="rounded=1;whiteSpace=wrap;html=1;fillColor=#fff2cc;strokeColor=#d6b656;" vertex="1" parent="1">
          <mxGeometry x="365" y="360" width="120" height="60" as="geometry" />
        </mxCell>
        <mxCell id="DogwxtStTw7Rdeo8IRhZ-48" value="" style="endArrow=classic;html=1;rounded=0;entryX=0;entryY=0.5;entryDx=0;entryDy=0;" edge="1" parent="1" target="DogwxtStTw7Rdeo8IRhZ-47">
          <mxGeometry width="50" height="50" relative="1" as="geometry">
            <mxPoint x="425" y="550" as="sourcePoint" />
            <mxPoint x="300" y="280" as="targetPoint" />
            <Array as="points">
              <mxPoint x="300" y="550" />
              <mxPoint x="300" y="390" />
            </Array>
          </mxGeometry>
        </mxCell>
        <mxCell id="DogwxtStTw7Rdeo8IRhZ-51" value="&lt;div&gt;Transformer&lt;/div&gt;&lt;div&gt;Encoder&lt;br&gt;&lt;/div&gt;" style="text;html=1;strokeColor=none;fillColor=none;align=center;verticalAlign=middle;whiteSpace=wrap;rounded=0;" vertex="1" parent="1">
          <mxGeometry x="620" y="565" width="60" height="30" as="geometry" />
        </mxCell>
        <mxCell id="DogwxtStTw7Rdeo8IRhZ-53" value="permute -&amp;gt; (seq, batch, feat_dim)" style="text;html=1;align=center;verticalAlign=middle;resizable=0;points=[];autosize=1;strokeColor=none;fillColor=none;" vertex="1" parent="1">
          <mxGeometry x="448" y="1030" width="200" height="30" as="geometry" />
        </mxCell>
        <mxCell id="DogwxtStTw7Rdeo8IRhZ-54" value="(seq, batch, model_dim)" style="text;html=1;strokeColor=none;fillColor=none;align=center;verticalAlign=middle;whiteSpace=wrap;rounded=0;" vertex="1" parent="1">
          <mxGeometry x="525" y="872.5" width="160" height="30" as="geometry" />
        </mxCell>
        <mxCell id="DogwxtStTw7Rdeo8IRhZ-55" value="3 x" style="text;html=1;align=center;verticalAlign=middle;resizable=0;points=[];autosize=1;strokeColor=none;fillColor=none;" vertex="1" parent="1">
          <mxGeometry x="175" y="565" width="35" height="30" as="geometry" />
        </mxCell>
        <mxCell id="DogwxtStTw7Rdeo8IRhZ-56" value="(seq, batch, model_dim)" style="text;html=1;strokeColor=none;fillColor=none;align=center;verticalAlign=middle;whiteSpace=wrap;rounded=0;" vertex="1" parent="1">
          <mxGeometry x="520" y="305" width="160" height="30" as="geometry" />
        </mxCell>
        <mxCell id="DogwxtStTw7Rdeo8IRhZ-57" value="Activation" style="rounded=1;whiteSpace=wrap;html=1;fillColor=#fff2cc;strokeColor=#d6b656;" vertex="1" parent="1">
          <mxGeometry x="355" y="215" width="120" height="60" as="geometry" />
        </mxCell>
        <mxCell id="DogwxtStTw7Rdeo8IRhZ-59" value="" style="endArrow=classic;html=1;rounded=0;entryX=0.5;entryY=1;entryDx=0;entryDy=0;exitX=0.5;exitY=0;exitDx=0;exitDy=0;" edge="1" parent="1" source="DogwxtStTw7Rdeo8IRhZ-50" target="DogwxtStTw7Rdeo8IRhZ-57">
          <mxGeometry width="50" height="50" relative="1" as="geometry">
            <mxPoint x="340" y="635" as="sourcePoint" />
            <mxPoint x="390" y="585" as="targetPoint" />
          </mxGeometry>
        </mxCell>
        <mxCell id="DogwxtStTw7Rdeo8IRhZ-62" value="Decoder" style="rounded=1;whiteSpace=wrap;html=1;fillColor=#dae8fc;strokeColor=#6c8ebf;" vertex="1" parent="1">
          <mxGeometry x="355" y="85" width="120" height="60" as="geometry" />
        </mxCell>
        <mxCell id="DogwxtStTw7Rdeo8IRhZ-63" value="" style="endArrow=classic;html=1;rounded=0;exitX=0.5;exitY=0;exitDx=0;exitDy=0;entryX=0.5;entryY=1;entryDx=0;entryDy=0;" edge="1" parent="1" source="DogwxtStTw7Rdeo8IRhZ-57" target="DogwxtStTw7Rdeo8IRhZ-62">
          <mxGeometry width="50" height="50" relative="1" as="geometry">
            <mxPoint x="340" y="405" as="sourcePoint" />
            <mxPoint x="390" y="355" as="targetPoint" />
          </mxGeometry>
        </mxCell>
        <mxCell id="DogwxtStTw7Rdeo8IRhZ-61" value="Dropout" style="rounded=1;whiteSpace=wrap;html=1;fillColor=#fff2cc;strokeColor=#d6b656;" vertex="1" parent="1">
          <mxGeometry x="379.75" y="175" width="70.5" height="20" as="geometry" />
        </mxCell>
        <mxCell id="DogwxtStTw7Rdeo8IRhZ-64" value="permute -&amp;gt; (batch, seq, model_dim)" style="text;html=1;align=center;verticalAlign=middle;resizable=0;points=[];autosize=1;strokeColor=none;fillColor=none;" vertex="1" parent="1">
          <mxGeometry x="465" y="185" width="210" height="30" as="geometry" />
        </mxCell>
        <mxCell id="DogwxtStTw7Rdeo8IRhZ-65" value="(batch, seq, feat_dim)" style="text;html=1;strokeColor=none;fillColor=none;align=center;verticalAlign=middle;whiteSpace=wrap;rounded=0;" vertex="1" parent="1">
          <mxGeometry x="515" y="105" width="160" height="30" as="geometry" />
        </mxCell>
      </root>
    </mxGraphModel>
  </diagram>
  <diagram id="fnMfFjXKo-8Kxihv32TG" name="limu">
    <mxGraphModel dx="2074" dy="1269" grid="1" gridSize="5" guides="1" tooltips="1" connect="1" arrows="1" fold="1" page="1" pageScale="1" pageWidth="850" pageHeight="1100" math="0" shadow="0">
      <root>
        <mxCell id="0" />
        <mxCell id="1" parent="0" />
        <mxCell id="Pzm4bXZtgnzRt4yk8eaJ-1" value="" style="rounded=1;whiteSpace=wrap;html=1;fillColor=#e1d5e7;strokeColor=#9673a6;" vertex="1" parent="1">
          <mxGeometry x="915" y="145" width="210" height="300" as="geometry" />
        </mxCell>
        <mxCell id="Pzm4bXZtgnzRt4yk8eaJ-2" value="" style="rounded=1;whiteSpace=wrap;html=1;fillColor=#e1d5e7;strokeColor=#9673a6;" vertex="1" parent="1">
          <mxGeometry x="235" y="160" width="360" height="695" as="geometry" />
        </mxCell>
        <mxCell id="Pzm4bXZtgnzRt4yk8eaJ-3" value="&lt;div&gt;&lt;font style=&quot;font-size: 15px;&quot;&gt;Inputs&lt;/font&gt;&lt;/div&gt;" style="text;html=1;strokeColor=none;fillColor=none;align=center;verticalAlign=middle;whiteSpace=wrap;rounded=0;" vertex="1" parent="1">
          <mxGeometry x="395" y="1070" width="60" height="30" as="geometry" />
        </mxCell>
        <mxCell id="Pzm4bXZtgnzRt4yk8eaJ-4" value="(batch, seq, feat_dim)" style="text;html=1;strokeColor=none;fillColor=none;align=center;verticalAlign=middle;whiteSpace=wrap;rounded=0;" vertex="1" parent="1">
          <mxGeometry x="520" y="1070" width="120" height="30" as="geometry" />
        </mxCell>
        <mxCell id="Pzm4bXZtgnzRt4yk8eaJ-5" value="" style="endArrow=classic;html=1;rounded=0;exitX=0.5;exitY=0;exitDx=0;exitDy=0;entryX=0.5;entryY=1;entryDx=0;entryDy=0;" edge="1" parent="1" source="Pzm4bXZtgnzRt4yk8eaJ-3" target="Pzm4bXZtgnzRt4yk8eaJ-12">
          <mxGeometry width="50" height="50" relative="1" as="geometry">
            <mxPoint x="400" y="550" as="sourcePoint" />
            <mxPoint x="425" y="1020" as="targetPoint" />
          </mxGeometry>
        </mxCell>
        <mxCell id="Pzm4bXZtgnzRt4yk8eaJ-6" value="(batch, seq, model_dim)" style="text;html=1;strokeColor=none;fillColor=none;align=center;verticalAlign=middle;whiteSpace=wrap;rounded=0;" vertex="1" parent="1">
          <mxGeometry x="505" y="965" width="160" height="30" as="geometry" />
        </mxCell>
        <mxCell id="Pzm4bXZtgnzRt4yk8eaJ-7" value="" style="ellipse;whiteSpace=wrap;html=1;aspect=fixed;" vertex="1" parent="1">
          <mxGeometry x="403" y="865" width="45" height="45" as="geometry" />
        </mxCell>
        <mxCell id="Pzm4bXZtgnzRt4yk8eaJ-8" value="" style="endArrow=classic;html=1;rounded=0;exitX=0.5;exitY=0;exitDx=0;exitDy=0;entryX=0.5;entryY=1;entryDx=0;entryDy=0;" edge="1" parent="1" source="Pzm4bXZtgnzRt4yk8eaJ-12" target="Pzm4bXZtgnzRt4yk8eaJ-7">
          <mxGeometry width="50" height="50" relative="1" as="geometry">
            <mxPoint x="425" y="950" as="sourcePoint" />
            <mxPoint x="320" y="920" as="targetPoint" />
          </mxGeometry>
        </mxCell>
        <mxCell id="Pzm4bXZtgnzRt4yk8eaJ-9" value="Positional Encoding" style="text;html=1;strokeColor=none;fillColor=none;align=center;verticalAlign=middle;whiteSpace=wrap;rounded=0;" vertex="1" parent="1">
          <mxGeometry x="455" y="872.5" width="80" height="30" as="geometry" />
        </mxCell>
        <mxCell id="Pzm4bXZtgnzRt4yk8eaJ-10" value="" style="endArrow=none;dashed=1;html=1;dashPattern=1 3;strokeWidth=2;rounded=0;exitX=0;exitY=1;exitDx=0;exitDy=0;entryX=1;entryY=0;entryDx=0;entryDy=0;" edge="1" parent="1" source="Pzm4bXZtgnzRt4yk8eaJ-7" target="Pzm4bXZtgnzRt4yk8eaJ-7">
          <mxGeometry width="50" height="50" relative="1" as="geometry">
            <mxPoint x="400" y="550" as="sourcePoint" />
            <mxPoint x="450" y="500" as="targetPoint" />
          </mxGeometry>
        </mxCell>
        <mxCell id="Pzm4bXZtgnzRt4yk8eaJ-11" value="" style="endArrow=none;dashed=1;html=1;dashPattern=1 3;strokeWidth=2;rounded=0;exitX=0;exitY=0;exitDx=0;exitDy=0;entryX=1;entryY=1;entryDx=0;entryDy=0;" edge="1" parent="1" source="Pzm4bXZtgnzRt4yk8eaJ-7" target="Pzm4bXZtgnzRt4yk8eaJ-7">
          <mxGeometry width="50" height="50" relative="1" as="geometry">
            <mxPoint x="400" y="550" as="sourcePoint" />
            <mxPoint x="450" y="500" as="targetPoint" />
          </mxGeometry>
        </mxCell>
        <mxCell id="Pzm4bXZtgnzRt4yk8eaJ-12" value="&lt;div&gt;Input Projection&lt;/div&gt;" style="rounded=1;whiteSpace=wrap;html=1;fillColor=#dae8fc;strokeColor=#6c8ebf;" vertex="1" parent="1">
          <mxGeometry x="365" y="960" width="120" height="60" as="geometry" />
        </mxCell>
        <mxCell id="Pzm4bXZtgnzRt4yk8eaJ-13" value="&lt;div&gt;Multi-Head Attention&lt;br&gt;&lt;/div&gt;" style="rounded=1;whiteSpace=wrap;html=1;fillColor=#f8cecc;strokeColor=#b85450;" vertex="1" parent="1">
          <mxGeometry x="365" y="715" width="120" height="60" as="geometry" />
        </mxCell>
        <mxCell id="Pzm4bXZtgnzRt4yk8eaJ-14" value="" style="endArrow=classic;html=1;rounded=0;exitX=0.5;exitY=0;exitDx=0;exitDy=0;entryX=0.5;entryY=1;entryDx=0;entryDy=0;" edge="1" parent="1" source="Pzm4bXZtgnzRt4yk8eaJ-7" target="Pzm4bXZtgnzRt4yk8eaJ-13">
          <mxGeometry width="50" height="50" relative="1" as="geometry">
            <mxPoint x="400" y="550" as="sourcePoint" />
            <mxPoint x="450" y="500" as="targetPoint" />
          </mxGeometry>
        </mxCell>
        <mxCell id="Pzm4bXZtgnzRt4yk8eaJ-15" value="" style="edgeStyle=orthogonalEdgeStyle;rounded=0;orthogonalLoop=1;jettySize=auto;html=1;" edge="1" parent="1" target="Pzm4bXZtgnzRt4yk8eaJ-18">
          <mxGeometry relative="1" as="geometry">
            <mxPoint x="425.2380952380952" y="650" as="sourcePoint" />
          </mxGeometry>
        </mxCell>
        <mxCell id="Pzm4bXZtgnzRt4yk8eaJ-16" value="" style="edgeStyle=orthogonalEdgeStyle;rounded=0;orthogonalLoop=1;jettySize=auto;html=1;" edge="1" parent="1" target="Pzm4bXZtgnzRt4yk8eaJ-18">
          <mxGeometry relative="1" as="geometry">
            <mxPoint x="425.2380952380952" y="650" as="sourcePoint" />
          </mxGeometry>
        </mxCell>
        <mxCell id="Pzm4bXZtgnzRt4yk8eaJ-17" value="" style="endArrow=classic;html=1;rounded=0;exitX=0.5;exitY=0;exitDx=0;exitDy=0;entryX=0.5;entryY=1;entryDx=0;entryDy=0;" edge="1" parent="1" source="Pzm4bXZtgnzRt4yk8eaJ-13" target="Pzm4bXZtgnzRt4yk8eaJ-18">
          <mxGeometry width="50" height="50" relative="1" as="geometry">
            <mxPoint x="615" y="670" as="sourcePoint" />
            <mxPoint x="540" y="580" as="targetPoint" />
          </mxGeometry>
        </mxCell>
        <mxCell id="Pzm4bXZtgnzRt4yk8eaJ-18" value="Add &amp;amp; Norm" style="rounded=1;whiteSpace=wrap;html=1;fillColor=#fff2cc;strokeColor=#d6b656;" vertex="1" parent="1">
          <mxGeometry x="365" y="620" width="120" height="60" as="geometry" />
        </mxCell>
        <mxCell id="Pzm4bXZtgnzRt4yk8eaJ-19" value="" style="endArrow=classic;html=1;rounded=0;entryX=0;entryY=0.5;entryDx=0;entryDy=0;" edge="1" parent="1" target="Pzm4bXZtgnzRt4yk8eaJ-18">
          <mxGeometry width="50" height="50" relative="1" as="geometry">
            <mxPoint x="425" y="825" as="sourcePoint" />
            <mxPoint x="300" y="570" as="targetPoint" />
            <Array as="points">
              <mxPoint x="300" y="825" />
              <mxPoint x="300" y="650" />
            </Array>
          </mxGeometry>
        </mxCell>
        <mxCell id="Pzm4bXZtgnzRt4yk8eaJ-20" value="" style="endArrow=classic;html=1;rounded=0;exitX=0.5;exitY=0;exitDx=0;exitDy=0;entryX=0.25;entryY=1;entryDx=0;entryDy=0;" edge="1" parent="1" source="Pzm4bXZtgnzRt4yk8eaJ-7" target="Pzm4bXZtgnzRt4yk8eaJ-13">
          <mxGeometry width="50" height="50" relative="1" as="geometry">
            <mxPoint x="380" y="710" as="sourcePoint" />
            <mxPoint x="430" y="660" as="targetPoint" />
            <Array as="points">
              <mxPoint x="425" y="800" />
              <mxPoint x="395" y="800" />
            </Array>
          </mxGeometry>
        </mxCell>
        <mxCell id="Pzm4bXZtgnzRt4yk8eaJ-21" value="" style="endArrow=classic;html=1;rounded=0;exitX=0.5;exitY=0;exitDx=0;exitDy=0;entryX=0.75;entryY=1;entryDx=0;entryDy=0;" edge="1" parent="1" source="Pzm4bXZtgnzRt4yk8eaJ-7" target="Pzm4bXZtgnzRt4yk8eaJ-13">
          <mxGeometry width="50" height="50" relative="1" as="geometry">
            <mxPoint x="431" y="870" as="sourcePoint" />
            <mxPoint x="400" y="745" as="targetPoint" />
            <Array as="points">
              <mxPoint x="426" y="800" />
              <mxPoint x="455" y="800" />
            </Array>
          </mxGeometry>
        </mxCell>
        <mxCell id="Pzm4bXZtgnzRt4yk8eaJ-22" value="Feed Forward" style="rounded=1;whiteSpace=wrap;html=1;fillColor=#d5e8d4;strokeColor=#82b366;" vertex="1" parent="1">
          <mxGeometry x="365" y="310" width="120" height="60" as="geometry" />
        </mxCell>
        <mxCell id="Pzm4bXZtgnzRt4yk8eaJ-23" value="" style="endArrow=classic;html=1;rounded=0;entryX=0.5;entryY=1;entryDx=0;entryDy=0;exitX=0.5;exitY=0;exitDx=0;exitDy=0;" edge="1" parent="1" source="Pzm4bXZtgnzRt4yk8eaJ-22" target="Pzm4bXZtgnzRt4yk8eaJ-24">
          <mxGeometry width="50" height="50" relative="1" as="geometry">
            <mxPoint x="464.5" y="335" as="sourcePoint" />
            <mxPoint x="429.5" y="440" as="targetPoint" />
          </mxGeometry>
        </mxCell>
        <mxCell id="Pzm4bXZtgnzRt4yk8eaJ-24" value="Add &amp;amp; Norm" style="rounded=1;whiteSpace=wrap;html=1;fillColor=#fff2cc;strokeColor=#d6b656;" vertex="1" parent="1">
          <mxGeometry x="365" y="200" width="120" height="60" as="geometry" />
        </mxCell>
        <mxCell id="Pzm4bXZtgnzRt4yk8eaJ-25" value="" style="endArrow=classic;html=1;rounded=0;entryX=0;entryY=0.5;entryDx=0;entryDy=0;" edge="1" parent="1" target="Pzm4bXZtgnzRt4yk8eaJ-24">
          <mxGeometry width="50" height="50" relative="1" as="geometry">
            <mxPoint x="425" y="400" as="sourcePoint" />
            <mxPoint x="299.5" y="80" as="targetPoint" />
            <Array as="points">
              <mxPoint x="300" y="400" />
              <mxPoint x="300" y="230" />
            </Array>
          </mxGeometry>
        </mxCell>
        <mxCell id="Pzm4bXZtgnzRt4yk8eaJ-26" value="LayerNorm" style="rounded=1;whiteSpace=wrap;html=1;fillColor=#fff2cc;strokeColor=#d6b656;" vertex="1" parent="1">
          <mxGeometry x="365" y="1040" width="120" height="25" as="geometry" />
        </mxCell>
        <mxCell id="Pzm4bXZtgnzRt4yk8eaJ-27" value="LayerNorm" style="rounded=1;whiteSpace=wrap;html=1;fillColor=#fff2cc;strokeColor=#d6b656;" vertex="1" parent="1">
          <mxGeometry x="365.5" y="925" width="120" height="25" as="geometry" />
        </mxCell>
        <mxCell id="Pzm4bXZtgnzRt4yk8eaJ-28" value="Projection" style="rounded=1;whiteSpace=wrap;html=1;fillColor=#dae8fc;strokeColor=#6c8ebf;" vertex="1" parent="1">
          <mxGeometry x="365.5" y="530" width="120" height="30" as="geometry" />
        </mxCell>
        <mxCell id="Pzm4bXZtgnzRt4yk8eaJ-29" value="Add &amp;amp; Norm" style="rounded=1;whiteSpace=wrap;html=1;fillColor=#fff2cc;strokeColor=#d6b656;" vertex="1" parent="1">
          <mxGeometry x="365" y="420" width="120" height="60" as="geometry" />
        </mxCell>
        <mxCell id="Pzm4bXZtgnzRt4yk8eaJ-30" value="" style="endArrow=classic;html=1;rounded=0;exitX=0.5;exitY=0;exitDx=0;exitDy=0;entryX=0.5;entryY=1;entryDx=0;entryDy=0;" edge="1" parent="1" source="Pzm4bXZtgnzRt4yk8eaJ-18" target="Pzm4bXZtgnzRt4yk8eaJ-28">
          <mxGeometry width="50" height="50" relative="1" as="geometry">
            <mxPoint x="415" y="630" as="sourcePoint" />
            <mxPoint x="465" y="580" as="targetPoint" />
          </mxGeometry>
        </mxCell>
        <mxCell id="Pzm4bXZtgnzRt4yk8eaJ-31" value="" style="endArrow=classic;html=1;rounded=0;exitX=0.5;exitY=0;exitDx=0;exitDy=0;entryX=0.5;entryY=1;entryDx=0;entryDy=0;" edge="1" parent="1" source="Pzm4bXZtgnzRt4yk8eaJ-28" target="Pzm4bXZtgnzRt4yk8eaJ-29">
          <mxGeometry width="50" height="50" relative="1" as="geometry">
            <mxPoint x="415" y="630" as="sourcePoint" />
            <mxPoint x="465" y="580" as="targetPoint" />
          </mxGeometry>
        </mxCell>
        <mxCell id="Pzm4bXZtgnzRt4yk8eaJ-32" value="" style="endArrow=classic;html=1;rounded=0;entryX=0;entryY=0.5;entryDx=0;entryDy=0;" edge="1" parent="1" target="Pzm4bXZtgnzRt4yk8eaJ-29">
          <mxGeometry width="50" height="50" relative="1" as="geometry">
            <mxPoint x="425" y="600" as="sourcePoint" />
            <mxPoint x="365" y="425" as="targetPoint" />
            <Array as="points">
              <mxPoint x="300" y="600" />
              <mxPoint x="300" y="450" />
            </Array>
          </mxGeometry>
        </mxCell>
        <mxCell id="Pzm4bXZtgnzRt4yk8eaJ-33" value="" style="endArrow=classic;html=1;rounded=0;exitX=0.5;exitY=0;exitDx=0;exitDy=0;entryX=0.5;entryY=1;entryDx=0;entryDy=0;" edge="1" parent="1" source="Pzm4bXZtgnzRt4yk8eaJ-29" target="Pzm4bXZtgnzRt4yk8eaJ-22">
          <mxGeometry width="50" height="50" relative="1" as="geometry">
            <mxPoint x="415" y="415" as="sourcePoint" />
            <mxPoint x="465" y="365" as="targetPoint" />
          </mxGeometry>
        </mxCell>
        <mxCell id="Pzm4bXZtgnzRt4yk8eaJ-34" value="&lt;div&gt;Encoder&lt;/div&gt;" style="text;html=1;align=center;verticalAlign=middle;resizable=0;points=[];autosize=1;strokeColor=none;fillColor=none;" vertex="1" parent="1">
          <mxGeometry x="640" y="500" width="65" height="30" as="geometry" />
        </mxCell>
        <mxCell id="Pzm4bXZtgnzRt4yk8eaJ-35" value="" style="endArrow=classic;html=1;rounded=0;exitX=0.25;exitY=0;exitDx=0;exitDy=0;entryX=0.25;entryY=1;entryDx=0;entryDy=0;" edge="1" parent="1" source="Pzm4bXZtgnzRt4yk8eaJ-2" target="Pzm4bXZtgnzRt4yk8eaJ-2">
          <mxGeometry width="50" height="50" relative="1" as="geometry">
            <mxPoint x="435" y="600" as="sourcePoint" />
            <mxPoint x="305" y="925" as="targetPoint" />
            <Array as="points">
              <mxPoint x="325" y="100" />
              <mxPoint x="100" y="100" />
              <mxPoint x="100" y="925" />
              <mxPoint x="325" y="925" />
            </Array>
          </mxGeometry>
        </mxCell>
        <mxCell id="Pzm4bXZtgnzRt4yk8eaJ-36" value="&lt;div&gt;Cross-layer&lt;/div&gt;&lt;div&gt;parameter&lt;/div&gt;&lt;div&gt;sharing&lt;/div&gt;" style="text;html=1;align=center;verticalAlign=middle;resizable=0;points=[];autosize=1;strokeColor=none;fillColor=none;" vertex="1" parent="1">
          <mxGeometry x="125" y="485" width="80" height="60" as="geometry" />
        </mxCell>
        <mxCell id="Pzm4bXZtgnzRt4yk8eaJ-37" value="x 4" style="text;html=1;align=center;verticalAlign=middle;resizable=0;points=[];autosize=1;strokeColor=none;fillColor=none;" vertex="1" parent="1">
          <mxGeometry x="40" y="500" width="35" height="30" as="geometry" />
        </mxCell>
        <mxCell id="Pzm4bXZtgnzRt4yk8eaJ-38" value="" style="endArrow=classic;html=1;rounded=0;exitX=0.5;exitY=0;exitDx=0;exitDy=0;entryX=0.5;entryY=0;entryDx=0;entryDy=0;" edge="1" parent="1" source="Pzm4bXZtgnzRt4yk8eaJ-2" target="Pzm4bXZtgnzRt4yk8eaJ-42">
          <mxGeometry width="50" height="50" relative="1" as="geometry">
            <mxPoint x="1025" y="455" as="sourcePoint" />
            <mxPoint x="1020" y="80" as="targetPoint" />
            <Array as="points">
              <mxPoint x="415" y="80" />
              <mxPoint x="1020" y="80" />
            </Array>
          </mxGeometry>
        </mxCell>
        <mxCell id="Pzm4bXZtgnzRt4yk8eaJ-39" value="(batch, seq, model_dim)" style="text;html=1;strokeColor=none;fillColor=none;align=center;verticalAlign=middle;whiteSpace=wrap;rounded=0;" vertex="1" parent="1">
          <mxGeometry x="545" y="872.5" width="160" height="30" as="geometry" />
        </mxCell>
        <mxCell id="Pzm4bXZtgnzRt4yk8eaJ-40" value="(batch, seq, model_dim)" style="text;html=1;strokeColor=none;fillColor=none;align=center;verticalAlign=middle;whiteSpace=wrap;rounded=0;" vertex="1" parent="1">
          <mxGeometry x="425" y="110" width="160" height="30" as="geometry" />
        </mxCell>
        <mxCell id="Pzm4bXZtgnzRt4yk8eaJ-41" value="(batch, seq, model_dim)" style="text;html=1;strokeColor=none;fillColor=none;align=center;verticalAlign=middle;whiteSpace=wrap;rounded=0;" vertex="1" parent="1">
          <mxGeometry x="105" y="885" width="160" height="30" as="geometry" />
        </mxCell>
        <mxCell id="Pzm4bXZtgnzRt4yk8eaJ-42" value="&lt;div&gt;Projection&lt;/div&gt;" style="rounded=1;whiteSpace=wrap;html=1;fillColor=#dae8fc;strokeColor=#6c8ebf;" vertex="1" parent="1">
          <mxGeometry x="960" y="190" width="120" height="60" as="geometry" />
        </mxCell>
        <mxCell id="Pzm4bXZtgnzRt4yk8eaJ-43" value="Prediction Head" style="rounded=1;whiteSpace=wrap;html=1;fillColor=#dae8fc;strokeColor=#6c8ebf;" vertex="1" parent="1">
          <mxGeometry x="960" y="345" width="120" height="60" as="geometry" />
        </mxCell>
        <mxCell id="Pzm4bXZtgnzRt4yk8eaJ-44" value="(batch, seq, model_dim)" style="text;html=1;strokeColor=none;fillColor=none;align=center;verticalAlign=middle;whiteSpace=wrap;rounded=0;" vertex="1" parent="1">
          <mxGeometry x="1140" y="205" width="160" height="30" as="geometry" />
        </mxCell>
        <mxCell id="Pzm4bXZtgnzRt4yk8eaJ-45" value="(batch, seq, model_dim)" style="text;html=1;strokeColor=none;fillColor=none;align=center;verticalAlign=middle;whiteSpace=wrap;rounded=0;" vertex="1" parent="1">
          <mxGeometry x="1140" y="290" width="160" height="30" as="geometry" />
        </mxCell>
        <mxCell id="Pzm4bXZtgnzRt4yk8eaJ-46" value="(batch, seq, model_dim)" style="text;html=1;strokeColor=none;fillColor=none;align=center;verticalAlign=middle;whiteSpace=wrap;rounded=0;" vertex="1" parent="1">
          <mxGeometry x="1140" y="365" width="160" height="30" as="geometry" />
        </mxCell>
        <mxCell id="Pzm4bXZtgnzRt4yk8eaJ-47" value="" style="endArrow=classic;html=1;rounded=0;exitX=0.5;exitY=1;exitDx=0;exitDy=0;entryX=0.5;entryY=0;entryDx=0;entryDy=0;" edge="1" parent="1" source="Pzm4bXZtgnzRt4yk8eaJ-42" target="Pzm4bXZtgnzRt4yk8eaJ-43">
          <mxGeometry width="50" height="50" relative="1" as="geometry">
            <mxPoint x="895" y="345" as="sourcePoint" />
            <mxPoint x="945" y="295" as="targetPoint" />
          </mxGeometry>
        </mxCell>
        <mxCell id="Pzm4bXZtgnzRt4yk8eaJ-48" value="&lt;div&gt;Activation &amp;amp; Norm&lt;/div&gt;" style="rounded=1;whiteSpace=wrap;html=1;fillColor=#fff2cc;strokeColor=#d6b656;" vertex="1" parent="1">
          <mxGeometry x="930" y="280" width="180" height="40" as="geometry" />
        </mxCell>
        <mxCell id="Pzm4bXZtgnzRt4yk8eaJ-49" value="&lt;div&gt;Decoder&lt;/div&gt;" style="text;html=1;align=center;verticalAlign=middle;resizable=0;points=[];autosize=1;strokeColor=none;fillColor=none;" vertex="1" parent="1">
          <mxGeometry x="840" y="290" width="65" height="30" as="geometry" />
        </mxCell>
      </root>
    </mxGraphModel>
  </diagram>
  <diagram id="KQYG2iICMricFwq-tN3o" name="Mine">
    <mxGraphModel dx="2074" dy="1269" grid="1" gridSize="5" guides="1" tooltips="1" connect="1" arrows="1" fold="1" page="1" pageScale="1" pageWidth="850" pageHeight="1100" math="0" shadow="0">
      <root>
        <mxCell id="0" />
        <mxCell id="1" parent="0" />
      </root>
    </mxGraphModel>
  </diagram>
</mxfile>
